v -0.525731 0.850651 0
v 0.525731 0.850651 0
v -0.525731 -0.850651 0
v 0.525731 -0.850651 0
v 0 -0.525731 0.850651
v 0 0.525731 0.850651
v 0 -0.525731 -0.850651
v 0 0.525731 -0.850651
v 0.850651 0 -0.525731
v 0.850651 0 0.525731
v -0.850651 0 -0.525731
v -0.850651 0 0.525731
v -0.309017 0.809017 0.5
v 0.309017 0.809017 0.5
v 0 1 0
v 0.309017 0.809017 -0.5
v -0.309017 0.809017 -0.5
v -0.809017 0.5 0.309017
v -0.5 0.309017 0.809017
v -0.5 0.309017 -0.809017
v -0.809017 0.5 -0.309017
v -1 0 0
v 0.5 0.309017 0.809017
v 0.809017 0.5 0.309017
v 0.809017 0.5 -0.309017
v 0.5 0.309017 -0.809017
v 1 0 0
v 0 -1 0
v 0.309017 -0.809017 0.5
v -0.309017 -0.809017 0.5
v -0.309017 -0.809017 -0.5
v 0.309017 -0.809017 -0.5
v -0.5 -0.309017 0.809017
v -0.809017 -0.5 0.309017
v -0.809017 -0.5 -0.309017
v -0.5 -0.309017 -0.809017
v 0.809017 -0.5 0.309017
v 0.5 -0.309017 0.809017
v 0.5 -0.309017 -0.809017
v 0.809017 -0.5 -0.309017
v 0 0 1
v 0 0 -1
f 1 13 15
f 6 14 13
f 2 15 14
f 13 14 15
f 1 15 17
f 2 16 15
f 8 17 16
f 15 16 17
f 1 18 13
f 12 19 18
f 6 13 19
f 18 19 13
f 1 17 21
f 8 20 17
f 11 21 20
f 17 20 21
f 1 21 18
f 11 22 21
f 12 18 22
f 21 22 18
f 2 14 24
f 6 23 14
f 10 24 23
f 14 23 24
f 2 25 16
f 9 26 25
f 8 16 26
f 25 26 16
f 2 24 25
f 10 27 24
f 9 25 27
f 24 27 25
f 3 28 30
f 4 29 28
f 5 30 29
f 28 29 30
f 3 31 28
f 7 32 31
f 4 28 32
f 31 32 28
f 3 30 34
f 5 33 30
f 12 34 33
f 30 33 34
f 3 35 31
f 11 36 35
f 7 31 36
f 35 36 31
f 3 34 35
f 12 22 34
f 11 35 22
f 34 22 35
f 4 37 29
f 10 38 37
f 5 29 38
f 37 38 29
f 4 32 40
f 7 39 32
f 9 40 39
f 32 39 40
f 4 40 37
f 9 27 40
f 10 37 27
f 40 27 37
f 5 38 41
f 10 23 38
f 6 41 23
f 38 23 41
f 5 41 33
f 6 19 41
f 12 33 19
f 41 19 33
f 7 42 39
f 8 26 42
f 9 39 26
f 42 26 39
f 7 36 42
f 11 20 36
f 8 42 20
f 36 20 42
